# xmcd
#
# Track frame offsets:
#	150
#	16248
#	33621
#	47544
#	65517
#	79140
#	94263
#	114786
#
# Disc length: 1756 seconds
#
# Revision: 0
# Processed by: cddbd v1.5.2PL0 Copyright (c) Steve Scherf et al.
# Submitted via: audiograbber 1.83.01
#
DISCID=5b06da08
DTITLE=Tom Dixon featuring The Tom Dixon Band - Rock Hard Country
DYEAR=2007
DGENRE=Southern Rock
TTITLE0=Country Ain't Just Buckles Boots and Hats
TTITLE1=They Can Tell
TTITLE2=Captain and Coke
TTITLE3=Work All Day and Love All Night
TTITLE4=Thank You For Leaving Me
TTITLE5=One Day
TTITLE6=Watermelon Kisses
TTITLE7=Who You Wanted Me To Be
EXTD=
EXTT0=
EXTT1=
EXTT2=
EXTT3=
EXTT4=
EXTT5=
EXTT6=
EXTT7=
PLAYORDER=
